<svg width="137" height="80" viewBox="0 0 137 80" fill="none" xmlns="http://www.w3.org/2000/svg">
<path fill-rule="evenodd" clip-rule="evenodd" d="M18.3862 20.9582V14.0222L0.131598 21.1515H0.0881348L0.0881348 28.2592H0.131598L18.3862 35.3884V28.4525L9.01985 24.6946L18.3862 20.9582Z" fill="#8257E5"/>
<path fill-rule="evenodd" clip-rule="evenodd" d="M117.835 35.0234V28.0874L127.18 24.351L117.835 20.6146V13.6787L136.068 20.8079H136.111V27.9371H136.068L117.835 35.0234ZM110.012 3.88672L99.2763 40.0053H105.644L116.357 3.88672H110.012Z" fill="#8257E5"/>
<path fill-rule="evenodd" clip-rule="evenodd" d="M45.2032 12.7123C47.007 14.7952 47.9632 17.5653 47.8545 20.3783V35.7534H41.4871V21.7741C41.5523 20.228 41.096 18.6819 40.1615 17.4794C39.7269 16.9425 39.1836 16.5346 38.5751 16.2554C37.9666 15.9762 37.2929 15.8474 36.6192 15.8689C32.6423 15.8689 30.643 18.7678 30.643 24.5657V35.7534H24.2756V10.5005H30.643V12.7767C31.6427 11.746 32.8379 10.9514 34.1418 10.4361C35.4457 9.9207 36.8365 9.68448 38.2274 9.74891C39.5313 9.68448 40.8134 9.9207 42.0304 10.4361C43.2039 10.9514 44.3122 11.7245 45.2032 12.7123Z" fill="white"/>
<path fill-rule="evenodd" clip-rule="evenodd" d="M52.8318 0V36.1185H59.1992V0L52.8318 0Z" fill="white"/>
<path fill-rule="evenodd" clip-rule="evenodd" d="M93.2868 34.7872H87.9843L82.7687 19.906L77.5096 34.7872H72.2071L63.2754 9.49133H70.0774L75.0974 24.6302L80.2696 9.49133H85.2461L90.4183 24.6731L95.4383 9.49133H102.219L93.2868 34.7872Z" fill="white"/>
<path d="M43.1901 64.2894V79.1766H36.7108V65.6599C36.7108 62.2314 34.7468 59.9239 31.7526 59.9239C28.0746 59.9239 25.6678 62.3759 25.6678 68.3571V79.1942H19.1885V43.5411H25.6678V56.9333C27.5836 55.0242 30.135 53.9953 33.3747 53.9953C39.2622 53.9953 43.1901 58.2119 43.1901 64.2894Z" fill="url(#paint0_linear_86_9696)"/>
<path d="M70.5805 68.703H51.9272C52.5629 72.2321 55.0704 74.3952 58.0646 74.3952C59.976 74.3952 62.3827 74.15 64.1494 71.1594L69.9405 72.3811C67.7836 77.4821 63.4129 79.9341 58.0646 79.9341C51.1425 79.9341 45.4961 74.6798 45.4961 66.991C45.4961 59.3021 51.1425 53.9997 58.161 53.9997C64.6886 53.9997 70.335 59.0482 70.5805 66.5006V68.703ZM52.1245 64.1405H63.9609C63.128 61.0054 60.7694 59.6305 58.1698 59.6305C55.7061 59.6305 52.9092 61.1017 52.1245 64.1405Z" fill="url(#paint1_linear_86_9696)"/>
<path d="M97.4887 78.4586C96.3091 79.1338 94.973 79.4886 93.6134 79.4875C91.2066 79.4875 89.4399 78.6556 88.5062 76.5933C86.7877 78.5067 84.1223 79.9298 80.2601 79.9298C75.0565 79.9298 71.5713 76.891 71.5713 72.3285C71.5713 67.766 74.96 64.9768 81.0974 64.4864L87.8442 63.9478V63.7026C87.8442 61.2506 86.323 59.4335 83.4603 59.4335C81.1062 59.4335 79.4842 60.712 78.9932 63.1597L73.0048 61.9381C74.035 56.9859 78.0112 53.9953 83.7058 53.9953C89.6942 53.9953 94.0167 57.2792 94.0167 63.2122V71.9388C94.0167 72.9678 94.4069 73.5064 94.9987 73.5064C95.2924 73.5064 95.7834 73.4582 96.9583 73.3575L97.4887 78.4586ZM87.8442 69.2897V68.3571L81.6104 69.0445C79.1072 69.3379 78.0243 70.5158 78.0243 72.0833C78.0243 73.7997 79.4491 74.7805 81.6104 74.7805C85.2139 74.7805 87.8442 72.4204 87.8442 69.2897Z" fill="url(#paint2_linear_86_9696)"/>
<path d="M107.243 70.1742C107.243 72.5737 108.374 73.9004 110.338 73.9004C111.765 73.8108 113.156 73.4087 114.41 72.7226L116.278 78.1126C113.722 79.4875 111.955 79.9298 109.895 79.9298C104.056 79.9298 100.763 76.5933 100.763 70.6646V60.0246H95.5028V54.7309H100.763V45.8555L107.243 43.8939V54.7309H116.716V60.0246H107.243V70.1742Z" fill="url(#paint3_linear_86_9696)"/>
<defs>
<linearGradient id="paint0_linear_86_9696" x1="126.145" y1="99.7105" x2="34.0262" y2="39.3797" gradientUnits="userSpaceOnUse">
<stop stop-color="#FF008E"/>
<stop offset="1" stop-color="#8257E5"/>
</linearGradient>
<linearGradient id="paint1_linear_86_9696" x1="126.145" y1="99.7105" x2="34.0262" y2="39.3797" gradientUnits="userSpaceOnUse">
<stop stop-color="#FF008E"/>
<stop offset="1" stop-color="#8257E5"/>
</linearGradient>
<linearGradient id="paint2_linear_86_9696" x1="126.145" y1="99.7105" x2="34.0262" y2="39.3797" gradientUnits="userSpaceOnUse">
<stop stop-color="#FF008E"/>
<stop offset="1" stop-color="#8257E5"/>
</linearGradient>
<linearGradient id="paint3_linear_86_9696" x1="126.145" y1="99.7105" x2="34.0262" y2="39.3797" gradientUnits="userSpaceOnUse">
<stop stop-color="#FF008E"/>
<stop offset="1" stop-color="#8257E5"/>
</linearGradient>
</defs>
</svg>
